<svg width="512" height="512" viewBox="0 0 512 512" fill="none" xmlns="http://www.w3.org/2000/svg">
  <defs>
    <linearGradient id="eyeGradient" x1="256" y1="100" x2="256" y2="412" gradientUnits="userSpaceOnUse">
      <stop offset="0%" stop-color="#00d9ff" />
      <stop offset="100%" stop-color="#0ea5e9" />
    </linearGradient>
    <filter id="glow" x="-50%" y="-50%" width="200%" height="200%">
      <feGaussianBlur stdDeviation="10" result="coloredBlur"/>
      <feMerge>
        <feMergeNode in="coloredBlur"/>
        <feMergeNode in="SourceGraphic"/>
      </feMerge>
    </filter>
  </defs>

  <!-- Outer Iris/Shutter -->
  <path d="M256 48C141.1 48 48 141.1 48 256s93.1 208 208 208 208-93.1 208-208S370.9 48 256 48zm0 376c-92.8 0-168-75.2-168-168S163.2 88 256 88s168 75.2 168 168-75.2 168-168 168z" fill="url(#eyeGradient)" opacity="0.2"/>
  
  <!-- Digital Eye Segments -->
  <path d="M256 120c-75.1 0-136 60.9-136 136 0 20.3 4.5 39.4 12.5 56.7l-26.6 15.3C92.8 307.7 88 282.6 88 256c0-92.8 75.2-168 168-168 26.6 0 51.7 4.8 74.6 13.5l-15.3 26.6c-17.3-8-36.4-12.5-56.7-12.5z" fill="#00d9ff" filter="url(#glow)"/>
  <path d="M392 256c0 26.6-4.8 51.7-13.5 74.6l15.3 26.6c17.3-17.3 29.8-39.7 35.8-64.6l-30.2-8.1c-1.8 11.5-6.8 22.1-14.3 31.1l6.9 12-26.6-15.3c8-17.3 12.5-36.4 12.5-56.7 0-75.1-60.9-136-136-136-20.3 0-39.4 4.5-56.7 12.5l15.3 26.6c17.3-8 36.4-12.5 56.7-12.5 57.2 0 104 46.8 104 104z" fill="#00d9ff" opacity="0.8"/>
  
  <!-- Central Pupil/Lens -->
  <circle cx="256" cy="256" r="48" fill="#ffffff"/>
  <circle cx="256" cy="256" r="24" fill="#0a0e27"/>
  
  <!-- Tech Accents -->
  <rect x="248" y="48" width="16" height="40" rx="8" fill="#00d9ff" />
  <rect x="248" y="424" width="16" height="40" rx="8" fill="#00d9ff" />
  <rect x="48" y="248" width="40" height="16" rx="8" fill="#00d9ff" />
  <rect x="424" y="248" width="40" height="16" rx="8" fill="#00d9ff" />
</svg>
